<?xml version="1.0" encoding="utf-8"?>
<!-- Generator: Adobe Illustrator 15.1.0, SVG Export Plug-In . SVG Version: 6.00 Build 0)  -->
<!DOCTYPE svg PUBLIC "-//W3C//DTD SVG 1.1//EN" "http://www.w3.org/Graphics/SVG/1.1/DTD/svg11.dtd">
<svg version="1.1" id="Layer_1" xmlns="http://www.w3.org/2000/svg" xmlns:xlink="http://www.w3.org/1999/xlink" x="0px" y="0px"
	 width="1494.461px" height="336.508px" viewBox="0 0 1494.461 336.508" enable-background="new 0 0 1494.461 336.508"
	 xml:space="preserve">
<g>
	<g>
		
			<text transform="matrix(1 0 0 1 365.3145 312.54)" fill="#FFFFFF" font-family="'Roboto-Light'" font-size="67.2502" letter-spacing="8">The App for Rookie Investors</text>
	</g>
</g>
<g>
	<g>
		<g>
			<defs>
				<rect id="SVGID_1_" x="9.47" y="-0.748" width="337.319" height="337.776"/>
			</defs>
			<clipPath id="SVGID_2_">
				<use xlink:href="#SVGID_1_"  overflow="visible"/>
			</clipPath>
		</g>
		<path fill="#38ADD0" d="M204.379,34.429c-0.534,2.313-2.887,3.89-5.229,3.504l-2.723-0.45c-2.342-0.385-4.066-2.633-3.828-4.998
			l2.905-28.991c0.238-2.365,2.347-3.981,4.689-3.595l7.455,1.229c2.342,0.384,3.822,2.595,3.288,4.908L204.379,34.429z"/>
		<path fill="#51ABDF" d="M175.233,63.508c0.161,2.369-1.641,4.504-4.002,4.748l-2.743,0.283c-2.361,0.244-4.56-1.485-4.883-3.836
			l-8.273-59.938c-0.324-2.352,1.342-4.474,3.705-4.718l7.516-0.772c2.361-0.244,4.424,1.495,4.585,3.865L175.233,63.508z"/>
		<path fill="#8DD5ED" d="M257.026,80.307c-1.66,1.698-4.459,1.785-6.222,0.192l-2.046-1.847c-1.762-1.593-1.959-4.386-0.439-6.21
			l33.32-39.951c1.52-1.823,4.206-2.013,5.968-0.421l5.605,5.066c1.762,1.59,1.846,4.281,0.187,5.978L257.026,80.307z"/>
		<path fill="#51ABDF" d="M263.583,110.313c-2.088,1.13-4.773,0.376-5.966-1.677l-1.386-2.381c-1.193-2.054-0.521-4.76,1.495-6.016
			l59.734-37.205c2.015-1.256,4.641-0.604,5.834,1.448l3.798,6.531c1.193,2.053,0.461,4.656-1.627,5.788L263.583,110.313z"/>
		<path fill="#71B1C8" d="M80.34,152.101c2.371,0.139,4.259,2.193,4.197,4.567l-0.073,2.754c-0.061,2.374-2.054,4.327-4.428,4.341
			l-66.361,0.394c-2.373,0.014-4.265-1.916-4.204-4.287l0.197-7.551c0.061-2.375,2.051-4.204,4.421-4.066L80.34,152.101z"/>
		<path fill="#8DD5ED" d="M95.75,209.755c2.285-0.644,4.739,0.682,5.452,2.947l0.83,2.631c0.714,2.264-0.536,4.757-2.778,5.54
			l-66.532,23.219c-2.244,0.78-4.661-0.43-5.375-2.695l-2.272-7.205c-0.713-2.266,0.572-4.645,2.856-5.29L95.75,209.755z"/>
		<path fill="#8DD5ED" d="M259.933,159.013c-2.373,0.016-4.379-1.914-4.458-4.287l-0.09-2.756c-0.078-2.373,1.798-4.43,4.168-4.569
			l82.534-4.881c2.37-0.14,4.373,1.686,4.451,4.059l0.249,7.551c0.078,2.372-1.8,4.327-4.174,4.341L259.933,159.013z"/>
		<path fill="#A2CD5C" d="M279.042,133.114c-2.269,0.697-4.759-0.568-5.532-2.812l-0.901-2.608
			c-0.773-2.247,0.408-4.776,2.625-5.625l58.608-22.434c2.218-0.85,4.665,0.292,5.439,2.537l2.464,7.141
			c0.772,2.244-0.45,4.651-2.719,5.35L279.042,133.114z"/>
		<path fill="#51ABDF" d="M289.354,187.12c-2.29-0.629-3.729-3.04-3.202-5.354l0.615-2.688c0.528-2.315,2.872-3.86,5.208-3.437
			l44.583,8.113c2.336,0.426,3.815,2.667,3.287,4.983l-1.681,7.362c-0.528,2.313-2.833,3.691-5.122,3.061L289.354,187.12z"/>
		<path fill="#38ADD0" d="M264.873,240.671c-1.832-1.511-2.153-4.292-0.714-6.182l1.669-2.189c1.439-1.891,4.206-2.319,6.148-0.955
			l43.599,30.602c1.942,1.365,2.356,4.026,0.918,5.914l-4.575,6.01c-1.438,1.889-4.114,2.2-5.945,0.688L264.873,240.671z"/>
		<path fill="#A2CD5C" d="M256.036,206.225c-2.173-0.957-3.213-3.538-2.313-5.736l1.044-2.551c0.9-2.196,3.454-3.305,5.674-2.464
			l76.198,28.891c2.22,0.841,3.299,3.326,2.399,5.523l-2.862,6.989c-0.9,2.195-3.415,3.209-5.587,2.252L256.036,206.225z"/>
		<path fill="#B4DAC7" d="M193.641,266.024c-0.021-2.373,1.901-4.397,4.272-4.495l2.757-0.116c2.373-0.1,4.458,1.757,4.636,4.124
			l4.798,63.983c0.179,2.367-1.616,4.386-3.988,4.485l-7.543,0.317c-2.372,0.101-4.33-1.76-4.352-4.134L193.641,266.024z"/>
		<path fill="#55C1B3" d="M225.508,286.73c-0.638-2.285,0.681-4.78,2.929-5.542l2.61-0.885c2.249-0.764,4.812,0.417,5.696,2.619
			l13.063,32.563c0.884,2.201-0.231,4.629-2.48,5.39l-7.152,2.424c-2.251,0.762-4.61-0.485-5.249-2.773L225.508,286.73z"/>
		<path fill="#8DD5ED" d="M236.343,246.207c-1.324-1.972-0.828-4.717,1.101-6.102l2.237-1.606c1.929-1.385,4.689-0.977,6.135,0.905
			l40.532,52.779c1.446,1.884,1.051,4.557-0.877,5.943l-6.134,4.405c-1.927,1.387-4.586,0.909-5.91-1.064L236.343,246.207z"/>
		<path fill="#51ABDF" d="M167.205,279.532c0.551-2.31,2.91-3.824,5.24-3.368l2.704,0.529c2.33,0.455,3.942,2.749,3.583,5.097
			l-7.455,48.714c-0.358,2.347-2.559,3.894-4.89,3.438l-7.408-1.45c-2.331-0.455-3.785-2.717-3.234-5.026L167.205,279.532z"/>
		<path fill="#A2CD5C" d="M107.315,262.072c1.755-1.596,4.511-1.479,6.123,0.264l1.873,2.024c1.611,1.742,1.624,4.607,0.027,6.363
			l-28.297,31.134c-1.595,1.756-4.223,1.768-5.834,0.025l-5.128-5.54c-1.613-1.744-1.496-4.478,0.26-6.075L107.315,262.072z"/>
		<path fill="#B4DAC7" d="M75.287,245.764c2.124-1.061,4.845-0.25,6.042,1.8l1.392,2.376c1.198,2.05,0.571,4.816-1.394,6.151
			l-22.58,15.316c-1.965,1.334-4.554,0.747-5.752-1.303l-3.813-6.518c-1.198-2.05-0.441-4.593,1.685-5.652L75.287,245.764z"/>
		<path fill="#B4DAC7" d="M80.979,182.733c2.359-0.264,4.575,1.442,4.922,3.792l0.405,2.727c0.348,2.348-1.276,4.624-3.611,5.057
			l-56.854,10.537c-2.336,0.434-4.531-1.135-4.88-3.484l-1.106-7.466c-0.349-2.35,1.297-4.487,3.658-4.751L80.979,182.733z"/>
		<path fill="#A2CD5C" d="M57.643,120.469c2.25,0.757,3.582,3.252,2.959,5.543l-0.724,2.66c-0.623,2.292-3.034,3.768-5.357,3.283
			l-31.074-6.497c-2.323-0.486-3.715-2.759-3.092-5.049l1.982-7.285c0.622-2.292,2.972-3.546,5.223-2.789L57.643,120.469z"/>
		<path fill="#B4DAC7" d="M92.781,105.32c1.77,1.583,1.971,4.372,0.45,6.195l-1.765,2.117c-1.521,1.822-4.3,2.125-6.176,0.67
			L38.863,78.313c-1.877-1.453-2.168-4.135-0.649-5.96l4.834-5.798c1.521-1.824,4.211-2.019,5.98-0.434L92.781,105.32z"/>
		<path fill="#38ADD0" d="M129.487,98.167c1.309,1.981,0.788,4.714-1.158,6.073l-2.261,1.581c-1.946,1.361-4.692,0.911-6.101-1.001
			L69.89,36.971c-1.409-1.91-0.97-4.586,0.975-5.947l6.188-4.326c1.948-1.358,4.611-0.853,5.92,1.128L129.487,98.167z"/>
		<path fill="#A2CD5C" d="M144.724,57.946c0.814,2.23-0.319,4.791-2.515,5.693l-2.552,1.047c-2.196,0.902-4.801-0.128-5.79-2.289
			l-21.551-47.104c-0.99-2.16,0.001-4.663,2.197-5.565l6.983-2.867c2.196-0.901,4.659,0.187,5.472,2.417L144.724,57.946z"/>
		<path fill="#55C1B3" d="M205.348,93.565c-1.457,1.876-4.258,2.324-6.225,0.993l-0.715-0.483c-1.967-1.329-2.61-4.102-1.428-6.16
			l46.032-80.102c1.181-2.056,3.761-2.656,5.729-1.326l12.303,8.312c1.967,1.328,2.387,3.948,0.93,5.824L205.348,93.565z"/>
		<path fill="#55C1B3" d="M156.708,244.367c1.394-1.924,4.17-2.449,6.169-1.169l2.271,1.45c2,1.281,2.685,4.022,1.524,6.092
			l-47.25,84.192c-1.162,2.072-3.748,2.72-5.749,1.438l-12.505-7.999c-2-1.279-2.498-3.898-1.105-5.82L156.708,244.367z"/>
		<path fill="#55C1B3" d="M185.461,105.702c1.699-1.658,4.805-2.103,6.9-0.989l0.84,0.445c2.096,1.117,2.674,3.601,1.281,5.524
			l-24.042,33.228c-1.392,1.924-0.808,4.395,1.296,5.492l51.083,26.651c2.104,1.098,2.533,3.444,0.951,5.217l-43.28,48.456
			c-1.582,1.77-4.603,2.329-6.715,1.244l-1.747-0.898c-2.111-1.085-2.882-3.665-1.713-5.732l17.618-31.142
			c1.167-2.065,0.44-4.726-1.62-5.906l-49.412-28.377c-2.06-1.181-2.354-3.506-0.654-5.165L185.461,105.702z"/>
	</g>
	<g>
		<path fill="#55C1B3" d="M447.625,157.47c-16.34-4.816-26.487-6.536-34.743-6.364c-6.364,0-8.084,1.72-8.084,4.644
			c0,4.988,6.192,5.16,23.22,11.181c15.479,5.504,28.379,11.352,28.379,31.647c0,22.703-15.996,35.087-40.763,35.087
			c-15.824,0-34.056-5.16-49.535-13.932l10.664-24.424c15.308,7.912,29.067,11.868,37.323,11.868c5.676,0,7.568-2.064,7.568-5.332
			c0-4.472-5.332-5.332-22.704-11.008c-19.607-6.536-28.896-14.104-28.896-32.163c0-22.704,14.62-33.196,38.872-33.196
			c15.996,0,29.067,2.064,46.783,7.74L447.625,157.47z"/>
		<path fill="#55C1B3" d="M514.19,127.198c30.271,0,47.299,14.791,47.299,41.279c0,26.315-16.856,41.279-46.783,41.279h-12.212
			v22.359h-32.164V127.198H514.19z M514.707,183.613c9.976,0,15.652-5.504,15.652-15.136c0-8.944-5.848-13.932-16.34-13.932h-11.524
			v29.067H514.707z"/>
		<path fill="#55C1B3" d="M589.871,232.116h-34.055l37.667-104.918h43.859l37.668,104.918h-33.884l-5.16-15.651h-41.107
			L589.871,232.116z M618.594,164.005c-1.548-4.3-2.408-7.911-3.268-11.008c-0.688,3.097-1.72,6.708-3.096,11.008l-8.428,25.112
			h23.047L618.594,164.005z"/>
		<path fill="#55C1B3" d="M729.188,127.198c30.271,0,47.299,14.275,47.299,39.731c0,15.651-6.191,26.659-17.199,33.023
			l20.812,28.551v3.612h-34.228l-19.264-26.315h-10.319v26.315h-32.164V127.198H729.188z M731.252,180.173
			c8.772,0,13.588-4.815,13.588-13.243c0-8.256-5.504-12.9-15.308-12.9h-13.243v26.144H731.252z"/>
		<path fill="#55C1B3" d="M822.412,213.885v18.231h-32.163V127.198h32.163v41.795l34.056-41.795h34.399v2.235l-32.68,40.075
			l33.884,59.512v3.096h-35.775l-20.124-35.26L822.412,213.885z"/>
		<path fill="#A2CB5B" d="M904.113,232.116V127.198h32.164v104.918H904.113z"/>
		<path fill="#A2CB5B" d="M1025.886,232.116l-39.388-53.147v53.147h-32.163V127.198h29.067l39.388,53.146v-53.146h32.163v104.918
			H1025.886z"/>
		<path fill="#A2CB5B" d="M1101.566,232.116l-39.043-104.918h35.947l18.231,59.511c1.204,3.784,2.236,7.74,3.269,11.696
			c1.031-3.956,2.063-7.912,3.268-11.696l19.779-59.511h34.399l-39.043,104.918H1101.566z"/>
		<path fill="#A2CB5B" d="M1185.674,232.116V127.198h79.635v26.831h-47.815v13.416h40.592v25.111h-40.592v12.556h49.191v27.004
			H1185.674z"/>
		<path fill="#A2CB5B" d="M1358.361,157.47c-16.34-4.816-26.487-6.536-34.743-6.364c-6.364,0-8.084,1.72-8.084,4.644
			c0,4.988,6.191,5.16,23.22,11.181c15.479,5.504,28.379,11.352,28.379,31.647c0,22.703-15.995,35.087-40.763,35.087
			c-15.824,0-34.056-5.16-49.535-13.932l10.663-24.424c15.309,7.912,29.068,11.868,37.324,11.868c5.676,0,7.567-2.064,7.567-5.332
			c0-4.472-5.332-5.332-22.703-11.008c-19.608-6.536-28.896-14.104-28.896-32.163c0-22.704,14.619-33.196,38.871-33.196
			c15.996,0,29.067,2.064,46.783,7.74L1358.361,157.47z"/>
		<path fill="#A2CB5B" d="M1435.419,156.266v75.851h-31.991v-75.851h-31.132v-29.067h94.255v29.067H1435.419z"/>
	</g>
</g>
</svg>
